<svg id="Layer_1" data-name="Layer 1" xmlns="http://www.w3.org/2000/svg" viewBox="0 0 32 32"><defs><style>.cls-1{fill:#e3171b;}.cls-2{fill:#2f363e;}.cls-3{fill:#050404;}.cls-4{fill:#fff;}.cls-5{fill:#2f4e60;}</style></defs><path class="cls-1" d="M27.29,26.07A15,15,0,1,1,26.24,4.88a15,15,0,0,1,1.05,21.19"/><path class="cls-2" d="M11.58,21.19c0-.14.18-.71.07-.79s-.29-.33-.65-.31a6.26,6.26,0,0,1-.75,0c.24-.48.15-.87.44-1.33s-.7-.2-.82-.16-.16.16-.19.35-.22.28-.2.4a.74.74,0,0,0-.3,0,.51.51,0,0,1-.41-.05c-.18-.14-.31.08-.43-.16s-.07-.37-.16-.51a1.34,1.34,0,0,1-.06-1.23c.18-.28-.12-.56.17-.78a1.23,1.23,0,0,0,.27-.69c.25,0,.71.25.92.26.06.14.38.29.4.07.08.06.15.18.27.1A.16.16,0,0,0,10,16.2a.22.22,0,0,0,0-.21c.16-.09.31,0,.41,0a.45.45,0,0,1,.32,0c.08,0,.27-.1.35-.13,0,.19.06.32.17.24s.22.07.36.2-.06.59.31.8c0,.16.22.59.3.58.65-.08-.22-1.55-.11-1.94a.73.73,0,0,1,.4-.51c.2-.11,0-.55.18-.62s.52,0,.71,0,.18-.11.05-.18a2.33,2.33,0,0,1,.29-.19c0-.15-.24-.4-.22-.5s.11-.05.1,0,.19-.22.2-.24c.12-.2-.18-.32-.13-.48.09,0,.37.11.43,0a1.59,1.59,0,0,0-.2-.88c.25-.28.87.49,1.11.26.19,0,.28,0,.28-.17s-.2,0-.26-.11.19-.31.41-.38.09-.17.14-.25a1.11,1.11,0,0,0,.34-.14c.33-.13.1-.1.21-.15s.56-.05.53-.1c0,.1-.39.23-.36.42s.39-.07.58-.11c.16-.34.58-.16.93-.24,0-.1-.1,0-.07-.14a.34.34,0,0,0,.35-.12c.05-.07,0-.14-.14-.12,0-.08-.16-.74-.4-.45s.09.45.09.62a.81.81,0,0,0-.31,0,1.62,1.62,0,0,1-.22,0c-.07-.11-.11-.1-.22-.15s-.19-.3-.23-.28a1.51,1.51,0,0,0,.11-.22,1.9,1.9,0,0,0-.36-.07c.17,0,.67-.1.43-.33s-.45,0-.65.09a1.81,1.81,0,0,0-.55.29c-.06,0-.27,0-.38.05,0-.13.36-.37.46-.43s.29,0,.41-.22a.19.19,0,0,1,.26-.19,5.52,5.52,0,0,1,.71-.11c.38,0,.67.17,1,.08a.86.86,0,0,0,.36-.32L19,9c.2,0,.36-.19.3-.34s0-.6-.35-.4c-.06,0,0-.24-.29-.19L18.8,8c-.07-.14-.71-.19-.86-.13s.08-.24-.09-.38-.37-.06-.34-.23c.16.16.37-.11,0-.22,0-.07.25,0,0-.18-.06,0-.25-.16-.22-.23s-.5-.66-.65-.08c0,.08-.67.3-.72.2s-.13-.08-.21-.06a.36.36,0,0,1-.25-.08c0-.09.16-.06.11-.31s-.07-.15,0-.32-.65,0-.58-.28c-.2-.1-.39-.3-.61-.22s-.33.21-.53.15-.33-.21-.45-.08-.1.23.05.28a2.48,2.48,0,0,0-.19.26.2.2,0,0,0,.17,0,.25.25,0,0,0,0,.22c0,.06,0,.16-.11.19-.05.22-.37.21-.05.39s.65.4.5.7-.78.38-1,.42c0,.23.12.22.12.44s.08.26.07.38c0,.27-.13.15-.26.27s-.24-.13-.37-.19a.37.37,0,0,1-.23-.43c0-.18.08-.51-.13-.55-.37-.07-.82,0-1.15-.19-.16-.11-.27-.32-.5-.37s-.26.12-.36.15-.19,0-.24,0c.07-.11,0-.54-.27-.53s-.28-.3-.22-.41.5-.27.51-.41.46-.39.31-.38c.45-.16.36-.16,0-.26a.41.41,0,0,1,.29-.12c.21,0,.41.11.31-.1a.6.6,0,0,0,.7-.39c-.07,0-.67,0-.63-.14a.74.74,0,0,0,.71,0c.18-.14.31-.19.08-.26a1.88,1.88,0,0,1,.67,0A.2.2,0,0,0,12,4.38c.1-.09.21,0,.31,0a.48.48,0,0,0,.43-.18c.27-.3-.32-.17-.22-.43,0,0,.15,0,.2,0s.13,0,.15-.07-.14-.12-.27-.16-.93.14-.48.23a.6.6,0,0,1-.22.09.94.94,0,0,1-.2.29c-.16.17-.3.22-.44,0,0,0,.31-.42,0-.3-.14,0-.23.2-.35.28.07-.09-.08-.21.05-.26-.06-.06-.14,0-.22,0l-.14,0c0-.14.15-.07.19-.17s-.23,0-.19-.19-.32,0-.38,0-.25.23-.41.33a.09.09,0,0,0,.09,0c0,.07-.22.18,0,.2a.83.83,0,0,0,.27,0,1.81,1.81,0,0,1,.23,0s-.32.16-.34.17.06,0,.11,0l.08,0c-.07.14-.29.19-.4.26s0,.12-.1.25-.07-.14-.05-.22-.48,0-.45.17c-.14.06-.7.34-.84.27-.3-.16-.68.26-.86.46h0c-.39,0-.6.33-1,.39l.22-.19c-.15-.11-.79.44-.89.55-.45.5-.14-.09-.62-.14-.07.06.1.11.07.19A1.37,1.37,0,0,0,5,6.37a1.81,1.81,0,0,0-.43.18l-.09.12,0,0A15.12,15.12,0,0,0,2.77,9.24a1.47,1.47,0,0,1,.46,0c-.08.23.51.17.5.31.06,0,0,.28,0,.27a2.54,2.54,0,0,0-.09.31c.13,0,0-.24.15-.29s0,.41,0,.42c0,.18-.15.69-.09.77s.23.28.18.35,0,.47,0,.61-.08.4-.1.61a3.58,3.58,0,0,0-.08,1,9.26,9.26,0,0,0,.3,1.15c.08.27.21.09.32.32s.2.66.33,1c.05.11.43.63.12.57,0,.32.45.33.49.63s.31.44.4.76c.27,0,0-.36,0-.43-.16,0-.24-.44-.27-.62s-.23-.4-.31-.54a1.29,1.29,0,0,1-.24-.75c.31.08.38.37.49.68a1.64,1.64,0,0,0,.21.46.51.51,0,0,1,.21.44,2.45,2.45,0,0,1,.75,1.08c.09.2-.06.32.06.5s.32.26.4.45a5.19,5.19,0,0,1,1,.52,2.1,2.1,0,0,0,.54.27c.17,0,.28-.11.44-.11s.58.49.81.66c.1,0,.91.33.91.21s.41.58.53.65-.1.15.06.27l.09.05.49-.2a.52.52,0,0,1-.13-.41"/><path class="cls-2" d="M23.1,26.21c-.08-.28-.54,0-.72-.15s-.33-.31-.54-.3a2.23,2.23,0,0,1-.72-.09c-.18,0-.24.19-.4.19,0-.25-.24-.34-.53-.29a.34.34,0,0,0-.45,0,.57.57,0,0,0,0-.14c-.13-.11-.26,0-.41,0a.74.74,0,0,1-.5.26c.1-.28.4-.35.54-.59s-.19-.26-.23-.37c-.14-.36-.11-.31-.42-.52a1.45,1.45,0,0,0-.72-.25c-.22,0-.24.09-.44,0a1.83,1.83,0,0,0-.6-.12c.07-.42-.43-.51-.67-.47a.72.72,0,0,1,.19-.2.37.37,0,0,0-.2-.12c.12,0,.06-.21.1-.28-.2,0-.31.29-.43.14s.15,0,.14-.09a.72.72,0,0,0-.68.06c-.22.15-.42-.13-.65-.1s-.27.07-.37-.09a.31.31,0,0,0-.34-.13c-.06-.05-.08-.29-.21-.2s-.08.17,0,.17c-.11.1-.3.05-.39.15s-.11-.16,0-.18c.39-.1-.13-.22-.21-.34a.43.43,0,0,0-.22-.2,2.23,2.23,0,0,0-1,.05c-.09-.12-.24-.25-.35-.4l-.49.2c.07,0,.15.08.12,0,.09.21.28.06.28.33,0,.08.27.12.32.12l.15,0a1.28,1.28,0,0,1,.25.15c.12.1.12.07.32.07a1.33,1.33,0,0,0-.1-.24c.2,0,.2-.12.43-.07,0,.09.14.29.1.35-.2.06-.42,0-.56.16s0,.32-.14.33a.32.32,0,0,0-.24.26.24.24,0,0,0-.14-.1c-.09.07.12.13.05.2a.16.16,0,0,0-.14.12c0,.13.15.24.16.38s.09.49,0,.6-.36.25-.25.26c-.16,0,0,.18-.22.19s-.17,0-.13.17-.32.52-.08.6a.64.64,0,0,0,.24,0c0,.21-.25.18-.34.33s.29.31.07.31c.06.12.21.14.32.19a1.66,1.66,0,0,0,.23.31,2.06,2.06,0,0,1,.44.62c.25.18.33.48.54.66a2.3,2.3,0,0,0,.65.36,3.9,3.9,0,0,1,.71.35c0,.11.17.51.07.62a3,3,0,0,0,0,.79c0,.18-.19-.09,0,.19a.1.1,0,0,1,0,.12s-.14.26-.25.19a.14.14,0,0,0,.09.11,15.25,15.25,0,0,0,3.24.08c-.08,0-.09-.12-.24-.1.39-.07.73.13,1.1-.06.09,0,.22-.2.33-.27l0,0a1.13,1.13,0,0,0,.74-.56c0-.44.69-.5.89-.8.46-.06.68.1,1-.18a2.92,2.92,0,0,0,.5-.7c.11-.16-.18-.54-.08-.72s.57-.1.66-.29C22.69,27.08,23.22,26.66,23.1,26.21Z"/><path class="cls-2" d="M31.05,14c-.08-.17-.18-.31-.26-.32s.13-.87-.23-.9c-.1.08-.32,0-.45-.05a.45.45,0,0,0-.48.15c0,.05-.59.16-.73-.11s.25-.15.32-.15c.27,0,.23-.22.35-.39s0-.15-.07-.27a1.85,1.85,0,0,0,.12-.33c.39,0,.05-.38.22-.48a1,1,0,0,0,.26.19.4.4,0,0,1,.15-.19,6.35,6.35,0,0,1,.38.84h0A15.15,15.15,0,0,0,29.4,8.87a.28.28,0,0,0-.09.26c-.19-.09-.16.15-.25.21s-.11,0-.15,0a.11.11,0,0,0-.11-.07,1.2,1.2,0,0,1,.08.27.66.66,0,0,0-.41-.15c0,.22.43.56.56.75s.21.58.11.74c-.22-.17-.91-.43-1.1-.24a3.19,3.19,0,0,0,.16.7,1.59,1.59,0,0,1-.06.57c.33.19-.09.59.48.48a.59.59,0,0,1-.06.88c-.26.19-.15.32-.3.52s.11.43-.1.68-.37.25-.44.45-.36.39-.36.73c-.27.13-.2.35-.39.53s0,.35,0,.53a.1.1,0,0,1,.09,0,2.07,2.07,0,0,1,.08.65,1.73,1.73,0,0,1-.16.72c-.21.25,0,.33,0,.56s.05.44.29.4c-.14.28.41.46.33.83.08.23.47.48.67.65s.37.06.53-.06.29-.23.5-.1.72-.5.84-.56.07.26.1.38a.48.48,0,0,0,.27-.17c.08.46-.26.83-.22,1.27v0A15,15,0,0,0,31.05,14"/><path class="cls-2" d="M17.27,1a2.61,2.61,0,0,1-.4,0,1.32,1.32,0,0,0-.69.1.57.57,0,0,1,.31.07h-.11c-.09,0-.21,0-.25.06a.28.28,0,0,0,.12,0s.21.13.19.2c.62.09,1-.24,1.58.17,0,0-.24.2-.2.22a.7.7,0,0,1,.37,0,.24.24,0,0,0-.1,0,.36.36,0,0,1,.24.09s-.24,0-.21,0a.12.12,0,0,1,.12,0,.19.19,0,0,0-.12.07.06.06,0,0,1,.07,0h-.11c-.11,0,.31.08.48.07a0,0,0,0,1,.06,0s0,0-.06,0,0,0,0,0c.17.06.44,0,.53.17s0,0,0,0,0,.06-.15,0-.43-.15-.59,0a.14.14,0,0,1,.1.07c-.15,0-.25.33-.24.33s.71.05.81-.16l-.21-.1.33.07s-.05,0-.07,0,0,0,.09,0h.06c.08.3-.4.22-.55.32.12,0-.09.1-.11.17s0,.12.06.1l-.07,0c.08.1.28,0,.36.09-.43,0-.16.25.18.3,0,.19-.1.24.08.28C19,4,19,4,19.08,4.12a.9.9,0,0,0,.16.17c0,.12,0,.06.12.15s.22,0,.25.07a1.13,1.13,0,0,0,0,.45c.2.06.32-.14.41,0a.32.32,0,0,0,.12.08h0c-.16.15.31.15.37.16a.11.11,0,0,0,.1.11c.1,0,.09,0,0,.08a1.42,1.42,0,0,0,.5,0s-.05.06,0,.1.11-.12.14-.12.26,0,.26,0a.24.24,0,0,0-.14.12l.36.07c-.15.17.06.09.22.16a.45.45,0,0,1,.23,0,.82.82,0,0,0,.22,0c.05-.15,0-.13,0-.1s0,0,0,0l.1-.12c0-.12-.15-.06-.07-.3s-.09-.2-.19-.42a.34.34,0,0,0,.14,0,.11.11,0,0,0-.07-.12c.12,0,.24,0,.31-.19a1.46,1.46,0,0,1-.24-.17.26.26,0,0,0,.17,0,1.29,1.29,0,0,0-.17-.16.26.26,0,0,0,.17,0,.18.18,0,0,0-.1-.14,2.32,2.32,0,0,0,.82.27,3.59,3.59,0,0,1,0-.47.35.35,0,0,0,.22.08c0-.16-.08-.31.07-.44.1,0,.26.12.37.05a1.19,1.19,0,0,0,.35-.08A15.08,15.08,0,0,0,17.27,1"/><path d="M.78,26.33H7.59a0,0,0,0,1,0,0v1.44a3.41,3.41,0,0,1-3.41,3.41h0A3.41,3.41,0,0,1,.78,27.77V26.33a0,0,0,0,1,0,0Z" transform="translate(7.72 -0.09) rotate(15.26)"/><path class="cls-3" d="M4.41,25l.41-1.49m.65-1.21c-1.56-.43-3.09.21-3.42,1.42L1.6,25.4l3.12.85.18-.67a.61.61,0,0,1-.45-.68l.4-1.49a.63.63,0,0,1,.74-.36l.18-.65Zm.88.24L6,22.47l-.18.66a.61.61,0,0,1,.4.66l-.41,1.49a.61.61,0,0,1-.68.36L5,26.32l3.17.87.46-1.67C8.92,24.31,7.92,23,6.35,22.56Z"/><path class="cls-4" d="M6.09,23.75l-.4,1.49-.05.07,0,0H5.56l0,0,0,0h0a.51.51,0,0,1-.25,0l-.14,0-.1,0A.42.42,0,0,1,4.7,25l.4-1.49a.42.42,0,0,1,.48-.26h.1a.52.52,0,0,1,.13.06.64.64,0,0,1,.2.16v0a.08.08,0,0,0,0,0l0,0v0h0v0h0v0s0,0,0,0A.27.27,0,0,1,6.09,23.75Z"/><path class="cls-5" d="M5.59,22.35a2,2,0,0,0,.66-1.16l0-.45a.76.76,0,0,0,0-.21l-.09-.46a.36.36,0,0,0,0-.1.93.93,0,0,1,.14-.66.88.88,0,0,1,.5-.36l.1,0a1.46,1.46,0,0,1,.72-.07l.16.36s-.78-.13-1,.38a.69.69,0,0,0,0,.47,5.28,5.28,0,0,1,.18,1.38,1.64,1.64,0,0,1-.63,1.07Z"/></svg>